<svg xmlns="http://www.w3.org/2000/svg">
  <symbol id="bluesky-icon" viewBox="0 0 16 17">
    <g clip-path="url(#bluesky-clip)"><path fill="#08060d" d="M7.75 7.735c-.693-1.348-2.58-3.86-4.334-5.097-1.68-1.187-2.32-.981-2.74-.79C.188 2.065.1 2.812.1 3.251s.241 3.602.398 4.13c.52 1.744 2.367 2.333 4.07 2.145-2.495.37-4.71 1.278-1.805 4.512 3.196 3.309 4.38-.71 4.987-2.746.608 2.036 1.307 5.91 4.93 2.746 2.72-2.746.747-4.143-1.747-4.512 1.702.189 3.55-.4 4.07-2.145.156-.528.397-3.691.397-4.13s-.088-1.186-.575-1.406c-.42-.19-1.06-.395-2.741.79-1.755 1.24-3.64 3.752-4.334 5.099"/></g>
    <defs><clipPath id="bluesky-clip"><path fill="#fff" d="M.1.85h15.3v15.3H.1z"/></clipPath></defs>
  </symbol>
  <symbol id="discord-icon" viewBox="0 0 20 19">
    <path fill="#08060d" d="M16.224 3.768a14.5 14.5 0 0 0-3.67-1.153c-.158.286-.343.67-.47.976a13.5 13.5 0 0 0-4.067 0c-.128-.306-.317-.69-.476-.976A14.4 14.4 0 0 0 3.868 3.77C1.546 7.28.916 10.703 1.231 14.077a14.7 14.7 0 0 0 4.5 2.306q.545-.748.965-1.587a9.5 9.5 0 0 1-1.518-.74q.191-.14.372-.293c2.927 1.369 6.107 1.369 8.999 0q.183.152.372.294-.723.437-1.52.74.418.838.963 1.588a14.6 14.6 0 0 0 4.504-2.308c.37-3.911-.63-7.302-2.644-10.309m-9.13 8.234c-.878 0-1.599-.82-1.599-1.82 0-.998.705-1.82 1.6-1.82.894 0 1.614.82 1.599 1.82.001 1-.705 1.82-1.6 1.82m5.91 0c-.878 0-1.599-.82-1.599-1.82 0-.998.705-1.82 1.6-1.82.893 0 1.614.82 1.599 1.82 0 1-.706 1.82-1.6 1.82"/>
  </symbol>
  <symbol id="documentation-icon" viewBox="0 0 21 20">
    <path fill="none" stroke="#aa3bff" stroke-linecap="round" stroke-linejoin="round" stroke-width="1.35" d="m15.5 13.333 1.533 1.322c.645.555.967.833.967 1.178s-.322.623-.967 1.179L15.5 18.333m-3.333-5-1.534 1.322c-.644.555-.966.833-.966 1.178s.322.623.966 1.179l1.534 1.321"/>
    <path fill="none" stroke="#aa3bff" stroke-linecap="round" stroke-linejoin="round" stroke-width="1.35" d="M17.167 10.836v-4.32c0-1.41 0-2.117-.224-2.68-.359-.906-1.118-1.621-2.08-1.96-.599-.21-1.349-.21-2.848-.21-2.623 0-3.935 0-4.983.369-1.684.591-3.013 1.842-3.641 3.428C3 6.449 3 7.684 3 10.154v2.122c0 2.558 0 3.838.706 4.726q.306.383.713.671c.76.536 1.79.64 3.581.66"/>
    <path fill="none" stroke="#aa3bff" stroke-linecap="round" stroke-linejoin="round" stroke-width="1.35" d="M3 10a2.78 2.78 0 0 1 2.778-2.778c.555 0 1.209.097 1.748-.047.48-.129.854-.503.982-.982.145-.54.048-1.194.048-1.749a2.78 2.78 0 0 1 2.777-2.777"/>
  </symbol>
  <symbol id="github-icon" viewBox="0 -0.5 25 25">
    <path fill="currentColor" d="m12.301 0h.093c2.242 0 4.34.613 6.137 1.68l-.055-.031c1.871 1.094 3.386 2.609 4.449 4.422l.031.058c1.04 1.769 1.654 3.896 1.654 6.166 0 5.406-3.483 10-8.327 11.658l-.087.026c-.063.02-.135.031-.209.031-.162 0-.312-.054-.433-.144l.002.001c-.128-.115-.208-.281-.208-.466 0-.005 0-.01 0-.014v.001q0-.048.008-1.226t.008-2.154c.007-.075.011-.161.011-.249 0-.792-.323-1.508-.844-2.025.618-.061 1.176-.163 1.718-.305l-.076.017c.573-.16 1.073-.373 1.537-.642l-.031.017c.508-.28.938-.636 1.292-1.058l.006-.007c.372-.476.663-1.036.84-1.645l.009-.035c.209-.683.329-1.468.329-2.281 0-.045 0-.091-.001-.136v.007c0-.022.001-.047.001-.072 0-1.248-.482-2.383-1.269-3.23l.003.003c.168-.44.265-.948.265-1.479 0-.649-.145-1.263-.404-1.814l.011.026c-.115-.022-.246-.035-.381-.035-.334 0-.649.078-.929.216l.012-.005c-.568.21-1.054.448-1.512.726l.038-.022-.609.384c-.922-.264-1.981-.416-3.075-.416s-2.153.152-3.157.436l.081-.02q-.256-.176-.681-.433c-.373-.214-.814-.421-1.272-.595l-.066-.022c-.293-.154-.64-.244-1.009-.244-.124 0-.246.01-.364.03l.013-.002c-.248.524-.393 1.139-.393 1.788 0 .531.097 1.04.275 1.509l-.01-.029c-.785.844-1.266 1.979-1.266 3.227 0 .025 0 .051.001.076v-.004c-.001.039-.001.084-.001.13 0 .809.12 1.591.344 2.327l-.015-.057c.189.643.476 1.202.85 1.693l-.009-.013c.354.435.782.793 1.267 1.062l.022.011c.432.252.933.465 1.46.614l.046.011c.466.125 1.024.227 1.595.284l.046.004c-.431.428-.718 1-.784 1.638l-.001.012c-.207.101-.448.183-.699.236l-.021.004c-.256.051-.549.08-.85.08-.022 0-.044 0-.066 0h.003c-.394-.008-.756-.136-1.055-.348l.006.004c-.371-.259-.671-.595-.881-.986l-.007-.015c-.198-.336-.459-.614-.768-.827l-.009-.006c-.225-.169-.49-.301-.776-.38l-.016-.004-.32-.048c-.023-.002-.05-.003-.077-.003-.14 0-.273.028-.394.077l.007-.003q-.128.072-.08.184c.039.086.087.16.145.225l-.001-.001c.061.072.13.135.205.19l.003.002.112.08c.283.148.516.354.693.603l.004.006c.191.237.359.505.494.792l.01.024.16.368c.135.402.38.738.7.981l.005.004c.3.234.662.402 1.057.478l.016.002c.33.064.714.104 1.106.112h.007c.045.002.097.002.15.002.261 0 .517-.021.767-.062l-.027.004.368-.064q0 .609.008 1.418t.008.873v.014c0 .185-.08.351-.208.466h-.001c-.119.089-.268.143-.431.143-.075 0-.147-.011-.214-.032l.005.001c-4.929-1.689-8.409-6.283-8.409-11.69 0-2.268.612-4.393 1.681-6.219l-.032.058c1.094-1.871 2.609-3.386 4.422-4.449l.058-.031c1.739-1.034 3.835-1.645 6.073-1.645h.098-.005zm-7.64 17.666q.048-.112-.112-.192-.16-.048-.208.032-.048.112.112.192.144.096.208-.032zm.497.545q.112-.08-.032-.256-.16-.144-.256-.048-.112.08.032.256.159.157.256.047zm.48.72q.144-.112 0-.304-.128-.208-.272-.096-.144.08 0 .288t.272.112zm.672.673q.128-.128-.064-.304-.192-.192-.32-.048-.144.128.064.304.192.192.32.044zm.913.4q.048-.176-.208-.256-.24-.064-.304.112t.208.24q.24.097.304-.096zm1.009.08q0-.208-.272-.176-.256 0-.256.176 0 .208.272.176.256.001.256-.175zm.929-.16q-.032-.176-.288-.144-.256.048-.224.24t.288.128.225-.224z"/>
  </symbol>
  <symbol id="social-icon" viewBox="0 0 20 20">
    <path fill="none" stroke="#aa3bff" stroke-linecap="round" stroke-linejoin="round" stroke-width="1.35" d="M12.5 6.667a4.167 4.167 0 1 0-8.334 0 4.167 4.167 0 0 0 8.334 0"/>
    <path fill="none" stroke="#aa3bff" stroke-linecap="round" stroke-linejoin="round" stroke-width="1.35" d="M2.5 16.667a5.833 5.833 0 0 1 8.75-5.053m3.837.474.513 1.035c.07.144.257.282.414.309l.93.155c.596.1.736.536.307.965l-.723.73a.64.64 0 0 0-.152.531l.207.903c.164.715-.213.991-.84.618l-.872-.52a.63.63 0 0 0-.577 0l-.872.52c-.624.373-1.003.094-.84-.618l.207-.903a.64.64 0 0 0-.152-.532l-.723-.729c-.426-.43-.289-.864.306-.964l.93-.156a.64.64 0 0 0 .412-.31l.513-1.034c.28-.562.735-.562 1.012 0"/>
  </symbol>
  <symbol id="x-icon" viewBox="0 0 19 19">
    <path fill="#08060d" fill-rule="evenodd" d="M1.893 1.98c.052.072 1.245 1.769 2.653 3.77l2.892 4.114c.183.261.333.48.333.486s-.068.089-.152.183l-.522.593-.765.867-3.597 4.087c-.375.426-.734.834-.798.905a1 1 0 0 0-.118.148c0 .01.236.017.664.017h.663l.729-.83c.4-.457.796-.906.879-.999a692 692 0 0 0 1.794-2.038c.034-.037.301-.34.594-.675l.551-.624.345-.392a7 7 0 0 1 .34-.374c.006 0 .93 1.306 2.052 2.903l2.084 2.965.045.063h2.275c1.87 0 2.273-.003 2.266-.021-.008-.02-1.098-1.572-3.894-5.547-2.013-2.862-2.28-3.246-2.273-3.266.008-.019.282-.332 2.085-2.38l2-2.274 1.567-1.782c.022-.028-.016-.03-.65-.03h-.674l-.3.342a871 871 0 0 1-1.782 2.025c-.067.075-.405.458-.75.852a100 100 0 0 1-.803.91c-.148.172-.299.344-.99 1.127-.304.343-.32.358-.345.327-.015-.019-.904-1.282-1.976-2.808L6.365 1.85H1.8zm1.782.91 8.078 11.294c.772 1.08 1.413 1.973 1.425 1.984.016.017.241.02 1.05.017l1.03-.004-2.694-3.766L7.796 5.75 5.722 2.852l-1.039-.004-1.039-.004z" clip-rule="evenodd"/>
  </symbol>
</svg>
